# AST/ASF file generated using VICON BodyLanguage
# -----------------------------------------------
:version 1.10
:name VICON
:units
  mass 1.0
  length 0.45
  angle deg
:documentation
   .ast/.asf automatically generated from VICON data using
   VICON BodyBuilder and BodyLanguage model FoxedUp or BRILLIANT.MOD
:root
   order TX TY TZ RX RY RZ
   axis XYZ
   position 0 0 0  
   orientation 0 0 0 
:bonedata
  begin
     id 1 
     name lhipjoint
     direction 0.822369 -0.411937 0.392449 
     length 3.8167 
     axis 0 0 0  XYZ
  end
  begin
     id 2 
     name lfemur
     direction 0.34202 -0.939693 0  
     length 6.16791  
     axis 0 0 20  XYZ
    dof rx ry rz
    limits (-160.0 20.0)
           (-70.0 70.0)
           (-60.0 70.0)
  end
  begin
     id 3 
     name ltibia
     direction 0.34202 -0.939693 0   
     length 7.07101   
     axis 0 0 20   XYZ
    dof rx
    limits (-10.0 170.0)
  end
  begin
     id 4 
     name lfoot
     direction 0.028254 -0.0776273 0.996582   
     length 1.66799   
     axis -90 7.62852e-016 20   XYZ
    dof rx rz
    limits (-45.0 90.0)
           (-70.0 20.0)
  end
  begin
     id 5 
     name ltoes
     direction 1.53483e-011 -4.21688e-011 1   
     length 0.851674   
     axis -90 7.62852e-016 20   XYZ
    dof rx
    limits (-90.0 20.0)
  end
  begin
     id 6 
     name rhipjoint
     direction -0.822466 -0.411836 0.392353   
     length 3.81764  
     axis 0 0 0  XYZ 
  end
  begin
     id 7 
     name rfemur
     direction -0.34202 -0.939693 0   
     length 6.28636   
     axis 0 0 -20   XYZ
    dof rx ry rz
    limits (-160.0 20.0)
           (-70.0 70.0)
           (-70.0 60.0)
  end
  begin
     id 8 
     name rtibia
     direction -0.34202 -0.939693 0   
     length 6.85621   
     axis 0 0 -20   XYZ
    dof rx
    limits (-10.0 170.0)
 end
 begin
     id 9 
     name rfoot
     direction -0.0553036 -0.151945 0.98684   
     length 1.57293  
     axis -90 -7.62852e-016 -20   XYZ
    dof rx rz
    limits (-45.0 90.0)
           (-20.0 70.0)
  end
  begin
     id 10 
     name rtoes
     direction -1.53592e-011 -4.21964e-011 1   
     length 0.802812   
     axis -90 -7.62852e-016 -20   XYZ
    dof rx
    limits (-90.0 20.0)
  end
  begin
     id 11 
     name lowerback
     direction 0.00654913 0.996475 -0.0836396   
     length 1.97212   
     axis 0 0 0   XYZ
    dof rx ry rz
    limits (-20.0 45.0)
           (-30.0 30.0)
           (-30.0 30.0)
  end
  begin
     id 12 
     name upperback
     direction 0.0111875 0.994527 0.103877   
     length 1.89704   
     axis 0 0 0   XYZ
    dof rx ry rz
    limits (-20.0 45.0)
           (-30.0 30.0)
           (-30.0 30.0)
  end
  begin
     id 13 
     name thorax
     direction 0.00473652 0.989004 0.147814   
     length 1.94516   
     axis 0 0 0   XYZ
    dof rx ry rz
    limits (-20.0 45.0)
           (-30.0 30.0)
           (-30.0 30.0)
  end
  begin
     id 14 
     name lowerneck
     direction -0.00925808 0.999011 0.0434791   
     length 1.81771   
     axis 0 0 0   XYZ
    dof rx ry rz
    limits (-20.0 45.0)
           (-30.0 30.0)
           (-30.0 30.0)
  end
  begin
     id 15 
     name upperneck
     direction 0.00451595 0.964412 -0.264365   
     length 1.80434   
     axis 0 0 0   XYZ
    dof rx ry rz
    limits (-20.0 45.0)
           (-30.0 30.0)
           (-30.0 30.0)
  end
  begin
     id 16
     name head
     direction -0.00110849 0.995756 -0.0920241  
     length 1.84006  
     axis 0 0 0   XYZ
    dof rx ry rz
    limits (-20.0 45.0)
           (-30.0 30.0)
           (-30.0 30.0)
  end
  begin
     id 17 
     name lclavicle
     direction 0.921253 0.385213 0.0538957  
     length 3.67415  
     axis 0 0 0   XYZ
    dof ry rz
    limits (-20.0 10.0)
           (0.0 20.0)
  end
  begin
     id 18 
     name lhumerus
     direction 1 -4.48961e-011 6.73441e-028   
     length 4.32712   
     axis 180 -30 -90   XYZ
    dof rx ry rz
    limits (-60.0 90.0)
           (-90.0 90.0)
           (-90.0 90.0)
  end
  begin
     id 19
     name lradius
     direction 1 -4.48985e-011 -9.53507e-028   
     length 3.28587   
     axis 180 -30 -90   XYZ
    dof rx
    limits (-10.0 170.0)
  end
  begin
     id 20
     name lwrist
     direction 1 -4.48951e-011 -4.67472e-027   
     length 1.64293   
     axis 1.65735e-015 90 90   XYZ
    dof ry
    limits (-180.0 0.0)
 end
  begin
     id 21 
     name lhand
     direction 1 -4.48946e-011 -9.34945e-027   
     length 0.433158   
     axis 5.96574e-015 90 90   XYZ
    dof rx rz
    limits (-90.0 90.0)
           (-45.0 45.0)
  end
  begin
     id 22 
     name lfingers
     direction 1 -4.48882e-011 -1.86989e-026   
     length 0.349224   
     axis 1.19315e-014 90 90   XYZ
    dof rx
    limits (0.0 90.0)
  end
  begin
     id 23
     name lthumb
     direction 0.707107 -6.3493e-011 0.707107   
     length 0.501417   
     axis -90 45 2.85299e-015   XYZ
    dof rx rz
    limits (-45.0 45.0)
           (-45.0 45.0)
  end
  begin
     id 24 
     name rclavicle
     direction -0.884378 0.46502 -0.0403866   
     length 3.50218  
     axis 0 0 0   XYZ 
    dof ry rz
    limits (-10.0 20.0)
           (-20.0 0.0)
  end
  begin
     id 25 
     name rhumerus
     direction -1 -4.48964e-011 1.58188e-027  
     length 4.29104   
     axis 180 30 90   XYZ
    dof rx ry rz
    limits (-90.0 60.0)
           (-90.0 90.0)
           (-90.0 90.0)
  end
  begin
     id 26 
     name rradius
     direction -1 -4.48978e-011 -1.9722e-027   
     length 3.2272   
     axis 180 30 90   XYZ
    dof rx
    limits (-10.0 170.0)
  end
  begin
     id 27 
     name rwrist
     direction -1 -4.48969e-011 -4.67472e-027   
     length 1.6136   
     axis 1.65735e-015 -90 -90   XYZ
    dof ry
    limits (-180.0 0.0)
  end
  begin
     id 28
     name rhand
     direction -1 -4.48846e-011 -9.34945e-027   
     length 0.543623   
     axis 5.96574e-015 -90 -90   XYZ
    dof rx rz
    limits (-90.0 90.0)
           (-45.0 45.0)
  end
  begin
     id 29
     name rfingers
     direction -1 -4.49074e-011 -1.86989e-026   
     length 0.438283   
     axis 1.19315e-014 -90 -90   XYZ
    dof rx
    limits (0.0 90.0)
  end
  begin
     id 30
     name rthumb
     direction -0.707107 -6.34834e-011 0.707107   
     length 0.629289   
     axis -90 -45 -2.85299e-015   XYZ
    dof rx rz
    limits (-45.0 45.0)
           (-45.0 45.0)
  end
:hierarchy
  begin
    root lhipjoint rhipjoint lowerback
    lhipjoint lfemur
    lfemur ltibia
    ltibia lfoot
    lfoot ltoes
    rhipjoint rfemur
    rfemur rtibia
    rtibia rfoot
    rfoot rtoes
    lowerback upperback
    upperback thorax
    thorax lowerneck lclavicle rclavicle
    lowerneck upperneck
    upperneck head
    lclavicle lhumerus
    lhumerus lradius
    lradius lwrist
    lwrist lhand lthumb
    lhand lfingers
    rclavicle rhumerus
    rhumerus rradius
    rradius rwrist
    rwrist rhand rthumb
    rhand rfingers
  end

#!OML:ASF H:\GeneralSubjects\Female5\Project 1\Capture day 1\Session 1\Female5.ASF
:FULLY-SPECIFIED
:DEGREES
255
root 4.71946 16.3115 -0.140869 162.651 -81.6638 -156.363
lowerback 6.22679 1.62762 0.775368
upperback -11.1833 2.1742 1.96554
thorax -16.0158 0.912852 1.39715
lowerneck -16.0126 -2.34358 -4.32482
upperneck 35.2688 -3.31795 -0.0660788
head 15.0389 -2.46961 0.0319154
rclavicle 6.5102e-015 2.38542e-015
rhumerus 22.5719 -6.69261 -16.706
rradius 105.588
rwrist -3.12399
rhand -40.8069 -0.118141
rfingers 7.12502
rthumb -13.7455 -29.6441
lclavicle 6.5102e-015 2.38542e-015
lhumerus 27.5584 -2.07686 14.8041
lradius 100.958
lwrist -24.8736
lhand -55.6091 27.3094
lfingers 7.12502
lthumb -27.9625 -304.753
rfemur 2.77489 18.7427 26.904
rtibia -0.262861
rfoot -23.2357 -25.3563
rtoes -6.0129
lfemur 4.26216 -29.4149 -19.0874
ltibia 3.18242
lfoot -45.0129 -1.84819
ltoes -25.362
256
root 4.67807 16.3132 -0.160514 161.861 -81.2979 -155.499
lowerback 6.15775 1.60601 0.670568
upperback -11.2071 2.14237 2.12302
thorax -16.0131 0.921491 1.64171
lowerneck -15.9804 -2.07297 -4.96884
upperneck 35.438 -3.16168 1.12396
head 15.145 -2.33055 0.667296
rclavicle 8.44835e-015 1.68967e-014
rhumerus 21.6137 -10.6103 -16.3993
rradius 106.348
rwrist -4.49162
rhand -40.4404 -0.0785573
rfingers 7.12502
rthumb -13.3923 -29.6281
lclavicle 8.44835e-015 1.68967e-014
lhumerus 25.1224 1.33345 13.4887
lradius 102.505
lwrist -25.0647
lhand -55.8648 28.009
lfingers 7.12502
lthumb -28.207 -304.094
rfemur 2.76431 18.5986 27.214
rtibia -0.272573
rfoot -22.5759 -25.3229
rtoes -7.12851
lfemur 4.49328 -29.4901 -18.8622
ltibia 3.14236
lfoot -45.3789 -3.14274
ltoes -23.4169
257
root 4.63486 16.3122 -0.180724 161.505 -80.9766 -155.106
lowerback 5.9711 1.66512 0.46674
upperback -11.2323 2.19657 2.21308
thorax -15.9385 0.976892 1.85021
lowerneck -15.5895 -1.9058 -5.16631
upperneck 35.3281 -3.09533 1.71619
head 15.0128 -2.25119 0.96669
rclavicle 3.52843e-015 3.3197e-014
rhumerus 20.3088 -14.4436 -16.0363
rradius 106.896
rwrist -5.33047
rhand -40.6647 0.0450982
rfingers 7.12502
rthumb -13.6085 -29.4901
lclavicle 3.52843e-015 3.3197e-014
lhumerus 22.8434 4.4754 13.0272
lradius 103.709
lwrist -25.716
lhand -56.6017 30.9006
lfingers 7.12502
lthumb -28.9111 -301.32
rfemur 2.83636 18.4248 27.4523
rtibia -0.344981
rfoot -22.1844 -25.1304
rtoes -7.57436
lfemur 4.77581 -29.8047 -18.8285
ltibia 3.13465
lfoot -45.9437 -4.68854
ltoes -21.0596
258
root 4.59346 16.3102 -0.200899 160.406 -80.6647 -153.953
lowerback 5.69013 1.71368 0.454543
upperback -11.2827 2.25208 2.25456
thorax -15.8224 1.00446 1.89872
lowerneck -15.2546 -1.75503 -5.06563
upperneck 35.4085 -3.06587 2.03237
head 14.9735 -2.19409 1.08819
rclavicle 2.27608e-014 1.19271e-014
rhumerus 19.0259 -17.799 -15.9852
rradius 107.173
rwrist -5.73551
rhand -40.9435 -0.0444831
rfingers 7.12502
rthumb -13.8772 -29.5615
lclavicle 2.27608e-014 1.19271e-014
lhumerus 20.9395 7.73186 13.2236
lradius 104.444
lwrist -26.3484
lhand -57.3054 32.9851
lfingers 7.12502
lthumb -29.583 -299.353
rfemur 2.90492 18.1082 27.7899
rtibia -0.457956
rfoot -21.7397 -24.8596
rtoes -8.1789
lfemur 4.97106 -29.9916 -18.6048
ltibia 3.28129
lfoot -46.5364 -4.064
ltoes -22.1484
259
root 4.55463 16.3066 -0.222862 158.611 -80.3497 -152.152
lowerback 5.48237 1.73047 0.430386
upperback -11.4059 2.27388 2.41908
thorax -15.8526 1.02554 2.10014
lowerneck -14.6831 -1.55116 -5.11417
upperneck 35.5609 -2.96052 2.39397
head 14.9134 -2.1296 1.26822
rclavicle 8.44835e-015 -1.98785e-015
rhumerus 18.167 -20.1527 -16.267
rradius 107.231
rwrist -5.96313
rhand -41.5275 -0.521624
rfingers 7.12502
rthumb -14.4399 -29.9993
lclavicle 8.44835e-015 -1.98785e-015
lhumerus 19.8503 11.07 14.1561
lradius 104.345
lwrist -26.8249
lhand -57.6492 33.7543
lfingers 7.12502
lthumb -29.9112 -298.642
rfemur 3.05574 17.8568 28.2954
rtibia -0.553644
rfoot -21.4297 -24.5974
rtoes -8.4781
lfemur 5.16246 -29.994 -18.1746
ltibia 3.45066
lfoot -46.9081 -3.35275
ltoes -23.539
